<mxfile host="Electron" modified="2023-10-12T20:14:06.517Z" agent="Mozilla/5.0 (X11; Linux x86_64) AppleWebKit/537.36 (KHTML, like Gecko) draw.io/22.0.2 Chrome/114.0.5735.289 Electron/25.8.4 Safari/537.36" etag="qCD7797a2vxTDdpcw-i2" version="22.0.2" type="device">
  <diagram name="Page-1" id="UjpUVTi0bv8DyGv0PaFO">
    <mxGraphModel dx="1434" dy="838" grid="1" gridSize="10" guides="1" tooltips="1" connect="1" arrows="1" fold="1" page="1" pageScale="1" pageWidth="850" pageHeight="1100" math="0" shadow="0">
      <root>
        <mxCell id="0" />
        <mxCell id="1" parent="0" />
        <mxCell id="BD9wqIizC6qwUtB0tyqI-48" style="edgeStyle=orthogonalEdgeStyle;rounded=0;orthogonalLoop=1;jettySize=auto;html=1;exitX=0.695;exitY=1.013;exitDx=0;exitDy=0;entryX=0.5;entryY=0;entryDx=0;entryDy=0;fillColor=#bac8d3;strokeColor=#23445d;strokeWidth=2;exitPerimeter=0;curved=1;" parent="1" source="BD9wqIizC6qwUtB0tyqI-4" target="BD9wqIizC6qwUtB0tyqI-13" edge="1">
          <mxGeometry relative="1" as="geometry">
            <Array as="points">
              <mxPoint x="324" y="230" />
              <mxPoint x="425" y="230" />
            </Array>
          </mxGeometry>
        </mxCell>
        <mxCell id="BD9wqIizC6qwUtB0tyqI-4" value="WHISPER SPEECH LANGUAGE DETECTION ACTION" style="rounded=0;whiteSpace=wrap;html=1;strokeWidth=2;fillColor=#bac8d3;strokeColor=#23445d;" parent="1" vertex="1">
          <mxGeometry x="185" y="120" width="200" height="80" as="geometry" />
        </mxCell>
        <mxCell id="BD9wqIizC6qwUtB0tyqI-49" style="edgeStyle=orthogonalEdgeStyle;rounded=0;orthogonalLoop=1;jettySize=auto;html=1;fillColor=#dae8fc;strokeColor=#6c8ebf;strokeWidth=2;entryX=0.214;entryY=-0.1;entryDx=0;entryDy=0;entryPerimeter=0;exitX=0.5;exitY=1;exitDx=0;exitDy=0;" parent="1" edge="1" source="BD9wqIizC6qwUtB0tyqI-5">
          <mxGeometry relative="1" as="geometry">
            <mxPoint x="284.8800000000001" y="690" as="targetPoint" />
            <mxPoint x="285" y="309" as="sourcePoint" />
            <Array as="points" />
          </mxGeometry>
        </mxCell>
        <mxCell id="BD9wqIizC6qwUtB0tyqI-5" value="SPHINX SPEECH DETECTION ACTION" style="rounded=0;whiteSpace=wrap;html=1;strokeWidth=2;fillColor=#dae8fc;strokeColor=#6c8ebf;" parent="1" vertex="1">
          <mxGeometry x="185" y="270" width="200" height="80" as="geometry" />
        </mxCell>
        <mxCell id="BD9wqIizC6qwUtB0tyqI-45" style="edgeStyle=orthogonalEdgeStyle;rounded=0;orthogonalLoop=1;jettySize=auto;html=1;exitX=0.5;exitY=1;exitDx=0;exitDy=0;fillColor=#fff2cc;strokeColor=#d6b656;strokeWidth=2;" parent="1" source="BD9wqIizC6qwUtB0tyqI-6" target="BD9wqIizC6qwUtB0tyqI-14" edge="1">
          <mxGeometry relative="1" as="geometry" />
        </mxCell>
        <mxCell id="BD9wqIizC6qwUtB0tyqI-6" value="WHISPER SPEECH DETECTION ACTION" style="rounded=0;whiteSpace=wrap;html=1;strokeWidth=2;fillColor=#fff2cc;strokeColor=#d6b656;" parent="1" vertex="1">
          <mxGeometry x="325" y="420" width="200" height="80" as="geometry" />
        </mxCell>
        <mxCell id="BD9wqIizC6qwUtB0tyqI-7" value="ARGOS TRANSLATION&lt;br&gt;(WITH FF REGION) ACTION" style="rounded=0;whiteSpace=wrap;html=1;strokeWidth=2;fillColor=#e1d5e7;strokeColor=#9673a6;" parent="1" vertex="1">
          <mxGeometry x="325" y="570" width="200" height="80" as="geometry" />
        </mxCell>
        <mxCell id="BD9wqIizC6qwUtB0tyqI-8" value="KEYWORD TAGGING&lt;br&gt;(WITH FF REGION) ACTION" style="rounded=0;whiteSpace=wrap;html=1;strokeWidth=2;fillColor=#b0e3e6;strokeColor=#0e8088;" parent="1" vertex="1">
          <mxGeometry x="185" y="721" width="440" height="80" as="geometry" />
        </mxCell>
        <mxCell id="BD9wqIizC6qwUtB0tyqI-10" value="(No TRIGGER)&amp;nbsp;" style="rounded=1;whiteSpace=wrap;html=1;fillColor=#f5f5f5;fontColor=#333333;strokeColor=#666666;" parent="1" vertex="1">
          <mxGeometry x="195" y="90" width="180" height="40" as="geometry" />
        </mxCell>
        <mxCell id="BD9wqIizC6qwUtB0tyqI-11" style="edgeStyle=orthogonalEdgeStyle;rounded=0;orthogonalLoop=1;jettySize=auto;html=1;exitX=0.5;exitY=1;exitDx=0;exitDy=0;fillColor=#d5e8d4;strokeColor=#82b366;" parent="1" source="BD9wqIizC6qwUtB0tyqI-10" target="BD9wqIizC6qwUtB0tyqI-10" edge="1">
          <mxGeometry relative="1" as="geometry" />
        </mxCell>
        <mxCell id="BD9wqIizC6qwUtB0tyqI-12" value="ISO_LANGUAGE=eng" style="rounded=1;whiteSpace=wrap;html=1;fillColor=#fad7ac;strokeColor=#b46504;" parent="1" vertex="1">
          <mxGeometry x="195" y="240" width="180" height="40" as="geometry" />
        </mxCell>
        <mxCell id="BD9wqIizC6qwUtB0tyqI-13" value="ISO_LANGUAGE=spa" style="rounded=1;whiteSpace=wrap;html=1;fillColor=#fad7ac;strokeColor=#b46504;" parent="1" vertex="1">
          <mxGeometry x="335" y="390" width="180" height="40" as="geometry" />
        </mxCell>
        <mxCell id="BD9wqIizC6qwUtB0tyqI-14" value="ISO_LANGUAGE=spa" style="rounded=1;whiteSpace=wrap;html=1;fillColor=#fad7ac;strokeColor=#b46504;" parent="1" vertex="1">
          <mxGeometry x="335" y="540" width="180" height="40" as="geometry" />
        </mxCell>
        <mxCell id="BD9wqIizC6qwUtB0tyqI-15" value="(No TRIGGER)&amp;nbsp;" style="rounded=1;whiteSpace=wrap;html=1;fillColor=#f5f5f5;strokeColor=#666666;fontColor=#333333;" parent="1" vertex="1">
          <mxGeometry x="195" y="690" width="420" height="40" as="geometry" />
        </mxCell>
        <mxCell id="BD9wqIizC6qwUtB0tyqI-39" value="1" style="text;html=1;align=center;verticalAlign=middle;resizable=0;points=[];autosize=1;strokeColor=none;fillColor=none;" parent="1" vertex="1">
          <mxGeometry x="185" y="170" width="30" height="30" as="geometry" />
        </mxCell>
        <mxCell id="BD9wqIizC6qwUtB0tyqI-40" value="2" style="text;html=1;align=center;verticalAlign=middle;resizable=0;points=[];autosize=1;strokeColor=none;fillColor=none;" parent="1" vertex="1">
          <mxGeometry x="185" y="320" width="30" height="30" as="geometry" />
        </mxCell>
        <mxCell id="BD9wqIizC6qwUtB0tyqI-41" value="3" style="text;html=1;align=center;verticalAlign=middle;resizable=0;points=[];autosize=1;strokeColor=none;fillColor=none;" parent="1" vertex="1">
          <mxGeometry x="325" y="470" width="30" height="30" as="geometry" />
        </mxCell>
        <mxCell id="BD9wqIizC6qwUtB0tyqI-42" value="4" style="text;html=1;align=center;verticalAlign=middle;resizable=0;points=[];autosize=1;strokeColor=none;fillColor=none;" parent="1" vertex="1">
          <mxGeometry x="325" y="620" width="30" height="30" as="geometry" />
        </mxCell>
        <mxCell id="BD9wqIizC6qwUtB0tyqI-43" value="5" style="text;html=1;align=center;verticalAlign=middle;resizable=0;points=[];autosize=1;strokeColor=none;fillColor=none;" parent="1" vertex="1">
          <mxGeometry x="185" y="771" width="30" height="30" as="geometry" />
        </mxCell>
        <mxCell id="BD9wqIizC6qwUtB0tyqI-47" style="edgeStyle=orthogonalEdgeStyle;rounded=0;orthogonalLoop=1;jettySize=auto;html=1;exitX=0.89;exitY=0.988;exitDx=0;exitDy=0;fillColor=#bac8d3;strokeColor=#23445d;strokeWidth=2;exitPerimeter=0;curved=1;" parent="1" source="BD9wqIizC6qwUtB0tyqI-4" edge="1">
          <mxGeometry relative="1" as="geometry">
            <mxPoint x="560" y="690" as="targetPoint" />
            <mxPoint x="361" y="119.03999999999996" as="sourcePoint" />
            <Array as="points">
              <mxPoint x="363" y="220" />
              <mxPoint x="561" y="220" />
            </Array>
          </mxGeometry>
        </mxCell>
        <mxCell id="BD9wqIizC6qwUtB0tyqI-50" style="edgeStyle=orthogonalEdgeStyle;rounded=0;orthogonalLoop=1;jettySize=auto;html=1;exitX=0.5;exitY=1;exitDx=0;exitDy=0;fillColor=#e1d5e7;strokeColor=#9673a6;strokeWidth=2;" parent="1" source="BD9wqIizC6qwUtB0tyqI-7" edge="1">
          <mxGeometry relative="1" as="geometry">
            <mxPoint x="425" y="690" as="targetPoint" />
            <mxPoint x="425" y="630" as="sourcePoint" />
          </mxGeometry>
        </mxCell>
        <mxCell id="VoCDc8kwsgtqnbkfejGq-4" value="" style="edgeStyle=orthogonalEdgeStyle;rounded=0;orthogonalLoop=1;jettySize=auto;html=1;strokeWidth=2;fillColor=#bac8d3;strokeColor=#23445d;" edge="1" parent="1">
          <mxGeometry relative="1" as="geometry">
            <mxPoint x="284.5" y="200" as="sourcePoint" />
            <mxPoint x="284.5" y="240" as="targetPoint" />
          </mxGeometry>
        </mxCell>
      </root>
    </mxGraphModel>
  </diagram>
</mxfile>
